<svg width="24" height="24" viewBox="0 0 24 24" fill="none" xmlns="http://www.w3.org/2000/svg">
<path d="M11.9914 0C5.35332 0 0 4.63317 0 10.2579C0 13.9089 2.22698 17.1058 5.56745 18.9313L4.43683 23.4997C4.41551 23.5682 4.41223 23.6416 4.42736 23.712C4.44249 23.7824 4.47543 23.8468 4.52248 23.8981C4.5911 23.9636 4.67939 23.9998 4.77088 24C4.84674 23.9934 4.91871 23.961 4.97644 23.9074L9.84154 20.3584C10.5597 20.4656 11.2836 20.5212 12.0086 20.5251C18.6381 20.5251 24 15.8919 24 10.2579C24 4.62391 18.621 0 11.9914 0Z" fill="#392020"/>
</svg>
