<svg width="24" height="24" viewBox="0 0 24 24" fill="none" xmlns="http://www.w3.org/2000/svg">
<path d="M7 21C5.89543 21 5 20.1046 5 19V5C5 3.89543 5.89543 3 7 3H14L19 8V19C19 20.1046 18.1046 21 17 21H7Z" fill="white" stroke="#60B1FA" stroke-width="1.5" stroke-linecap="round" stroke-linejoin="round"/>
<path d="M13 3V9H19" stroke="#60B1FA" stroke-width="1.5" stroke-linejoin="round"/>
<path d="M15 13L11 17L9 15" stroke="#1F6FEB" stroke-width="1.5" stroke-linejoin="round"/>
<path d="M7 21C5.89543 21 5 20.1046 5 19V5C5 3.89543 5.89543 3 7 3H14L19 8V19C19 20.1046 18.1046 21 17 21H7Z" fill="white"/>
<path d="M4.25 19V5C4.25 3.48122 5.48122 2.25 7 2.25H14C14.1989 2.25 14.3896 2.32907 14.5303 2.46973L19.5303 7.46973C19.6709 7.61038 19.75 7.80109 19.75 8V19C19.75 20.5188 18.5188 21.75 17 21.75H7C5.48122 21.75 4.25 20.5188 4.25 19ZM5.75 19C5.75 19.6904 6.30964 20.25 7 20.25H17C17.6904 20.25 18.25 19.6904 18.25 19V8.31055L13.6895 3.75H7C6.30964 3.75 5.75 4.30964 5.75 5V19Z" fill="#1F6FEB"/>
<path d="M13.75 3V8.25H19V9.75H13C12.5858 9.75 12.25 9.41421 12.25 9V3H13.75Z" fill="#1F6FEB"/>
<path d="M15.5303 13.5303L11.5303 17.5303C11.2374 17.8232 10.7626 17.8232 10.4697 17.5303L8.46973 15.5303L9.53027 14.4697L11 15.9395L14.4697 12.4697L15.5303 13.5303Z" fill="#1E1E1E"/>
</svg>
