<svg width="24" height="24" viewBox="0 0 24 24" fill="none" xmlns="http://www.w3.org/2000/svg">
<path d="M5 15L4.5 19.5L9 19L19.5858 8.41421C20.3668 7.63316 20.3668 6.36684 19.5858 5.58579L18.4142 4.41421C17.6332 3.63317 16.3668 3.63317 15.5858 4.41421L5 15Z" fill="white" stroke="#60B1FA" stroke-width="2" stroke-linecap="round" stroke-linejoin="round"/>
<path d="M14 6L18 10" stroke="#60B1FA" stroke-width="2" stroke-linecap="round" stroke-linejoin="round"/>
<path d="M13 20H21" stroke="#1F6FEB" stroke-width="2" stroke-linejoin="round"/>
<path d="M5 14.9999L4.5 19.4999L9 18.9999L19.5858 8.41416C20.3668 7.63311 20.3668 6.36678 19.5858 5.58573L18.4142 4.41416C17.6332 3.63311 16.3668 3.63311 15.5858 4.41416L5 14.9999Z" fill="white"/>
<path d="M14.8791 3.70729C16.0507 2.53572 17.9497 2.53572 19.1213 3.70729L20.2932 4.87819C21.4647 6.04977 21.4647 7.94978 20.2932 9.12136L9.70724 19.7073C9.54669 19.8678 9.33617 19.9684 9.11056 19.9934L4.61056 20.4934C4.30871 20.527 4.00797 20.422 3.79318 20.2073C3.57846 19.9926 3.47266 19.6917 3.50607 19.3899L4.00607 14.8899L4.03927 14.7239C4.08579 14.562 4.17279 14.4137 4.29318 14.2932L14.8791 3.70729ZM17.7072 5.12136C17.3167 4.73083 16.6837 4.73083 16.2932 5.12136L5.95528 15.4583L5.63204 18.3674L8.54122 18.0442L18.8791 7.70729C19.2695 7.31687 19.2693 6.68378 18.8791 6.29323L17.7072 5.12136Z" fill="#1F6FEB"/>
<path d="M13.2929 5.29302C13.6834 4.90249 14.3164 4.90249 14.707 5.29302L18.707 9.29302C19.0975 9.68354 19.0975 10.3166 18.707 10.7071C18.3164 11.0976 17.6834 11.0976 17.2929 10.7071L13.2929 6.70708C12.9024 6.31655 12.9024 5.68354 13.2929 5.29302Z" fill="#1F6FEB"/>
<path d="M21 19V21H13V19H21Z" fill="#1E1E1E"/>
</svg>
