<svg width="24" height="24" viewBox="0 0 24 24" fill="none" xmlns="http://www.w3.org/2000/svg">
<path fill-rule="evenodd" clip-rule="evenodd" d="M18.6253 16.0189L18.6316 9.15083L14.3383 4.70121C13.0426 3.28547 10.948 3.28547 9.65237 4.70121L5.36842 9.1394V16.0154C5.37187 18.0202 6.85518 19.6426 8.68187 19.6394H15.3119C17.1374 19.6426 18.6202 18.0223 18.6253 16.0189Z" fill="white"/>
<path d="M18.6316 9.15083L18.6253 16.0189C18.6202 18.0223 17.1374 19.6426 15.3119 19.6394H8.68187C6.85518 19.6426 5.37187 18.0202 5.36842 16.0154V9.1394M18.6316 9.15083L14.3383 4.70121C13.0426 3.28547 10.948 3.28547 9.65237 4.70121L5.36842 9.1394M18.6316 9.15083L21 11.6394M18.6316 9.15083V4.70121M5.36842 9.1394L3 11.6394" stroke="#60B1FA" stroke-width="1.5" stroke-linecap="round" stroke-linejoin="round"/>
<path d="M15 11.6394L11 15.6394L9 13.6394" stroke="#1F6FEB" stroke-width="1.5" stroke-linejoin="round"/>
<path fill-rule="evenodd" clip-rule="evenodd" d="M18.6253 16.0189L18.6316 9.15083L14.3383 4.70121C13.0426 3.28547 10.948 3.28547 9.65237 4.70121L5.36842 9.1394V16.0154C5.37187 18.0202 6.85518 19.6426 8.68187 19.6394H15.3119C17.1374 19.6426 18.6202 18.0223 18.6253 16.0189Z" fill="white"/>
<path d="M9.1123 4.18048C10.7019 2.45914 13.2882 2.45928 14.8779 4.18048L17.8818 7.29278V4.70098C17.882 4.2869 18.2177 3.95098 18.6318 3.95098C19.0458 3.95112 19.3817 4.28698 19.3818 4.70098V8.8504L21.543 11.1229C21.8284 11.4229 21.8166 11.8969 21.5166 12.1824C21.2165 12.4679 20.7426 12.4561 20.457 12.1561L19.3799 11.0242L19.375 16.0213C19.3687 18.3711 17.6144 20.3919 15.3115 20.3885L8.68163 20.3895C6.37733 20.3926 4.6222 18.3677 4.61816 16.0164V11.0213L3.54492 12.1551C3.26014 12.4557 2.78508 12.4689 2.48437 12.1844C2.18378 11.8996 2.17052 11.4246 2.45507 11.1238L4.82421 8.62384L4.8291 8.61895L9.1123 4.18048ZM13.7851 5.20782C12.7869 4.11699 11.2044 4.11705 10.206 5.20782C10.2016 5.21271 10.197 5.21769 10.1924 5.22247L6.11816 9.44219V16.0145L6.13281 16.3201C6.27331 17.8199 7.41673 18.8916 8.68066 18.8895H15.3135C16.6607 18.8916 17.8705 17.6737 17.875 16.0174L17.8809 9.45294L13.7988 5.22247C13.7943 5.21779 13.7895 5.21262 13.7851 5.20782Z" fill="#1F6FEB"/>
<path d="M15.5303 12.1697L11.5303 16.1697C11.2374 16.4626 10.7626 16.4626 10.4697 16.1697L8.46973 14.1697L9.53027 13.1091L11 14.5789L14.4697 11.1091L15.5303 12.1697Z" fill="#1E1E1E"/>
</svg>
